<mxfile host="app.diagrams.net" modified="2024-02-18T11:40:12.643Z" agent="Mozilla/5.0 (Windows NT 10.0; Win64; x64) AppleWebKit/537.36 (KHTML, like Gecko) Chrome/121.0.0.0 Safari/537.36" version="23.1.5" etag="bgR82b05zkRrYp0AaazW" type="github">
  <diagram name="第 1 页" id="w_fv1ki4N4NbiQBaw7l7">
    <mxGraphModel>
      <root>
        <mxCell id="0" />
        <mxCell id="1" parent="0" />
      </root>
    </mxGraphModel>
  </diagram>
</mxfile>
